# xmcd CD database file
#
# Track frame offsets:
#	150
#	14886
#	30790
#	52721
#	68403
#
# Disc length: 1199 seconds
#
# Revision: 0
# Processed by: cddbd v1.5.2PL0 Copyright (c) Steve Scherf et al.
# Submitted via: CDex 1.51
#
DISCID=2e04ad05
DTITLE=Nicole Rebeiro - Nicole Rebeiro
DYEAR=2009
DGENRE=Jazz
TTITLE0=Don't Mean Nothin'
TTITLE1=Over You
TTITLE2=Everything I Said
TTITLE3=Conqueror
TTITLE4=Climbing Out
EXTD=YEAR: 2009
EXTT0=
EXTT1=
EXTT2=
EXTT3=
EXTT4=
PLAYORDER=
